<svg xmlns="http://www.w3.org/2000/svg" xmlns:xlink="http://www.w3.org/1999/xlink" width="217.601" height="119.659" viewBox="0 0 217.601 119.659">
  <defs>
    <filter id="Path_36" x="13.975" y="1.876" width="79.667" height="100.034" filterUnits="userSpaceOnUse">
      <feOffset dy="3" input="SourceAlpha"/>
      <feGaussianBlur stdDeviation="3" result="blur"/>
      <feFlood flood-opacity="0.161"/>
      <feComposite operator="in" in2="blur"/>
      <feComposite in="SourceGraphic"/>
    </filter>
    <filter id="wuo" x="67.601" y="0" width="150" height="94" filterUnits="userSpaceOnUse">
      <feOffset dy="3" input="SourceAlpha"/>
      <feGaussianBlur stdDeviation="3" result="blur-2"/>
      <feFlood flood-opacity="0.161"/>
      <feComposite operator="in" in2="blur-2"/>
      <feComposite in="SourceGraphic"/>
    </filter>
    <filter id="Rectangle_230" x="174.175" y="66.64" width="27.233" height="28.104" filterUnits="userSpaceOnUse">
      <feOffset dy="3" input="SourceAlpha"/>
      <feGaussianBlur stdDeviation="3" result="blur-3"/>
      <feFlood flood-opacity="0.161"/>
      <feComposite operator="in" in2="blur-3"/>
      <feComposite in="SourceGraphic"/>
    </filter>
    <filter id="Path_37" x="13.975" y="1.876" width="69.094" height="100.034" filterUnits="userSpaceOnUse">
      <feOffset dy="3" input="SourceAlpha"/>
      <feGaussianBlur stdDeviation="3" result="blur-4"/>
      <feFlood flood-opacity="0.161"/>
      <feComposite operator="in" in2="blur-4"/>
      <feComposite in="SourceGraphic"/>
    </filter>
  </defs>
  <g id="Group_5" data-name="Group 5" transform="translate(-250 -218)">
    <g transform="matrix(1, 0, 0, 1, 250, 218)" filter="url(#Path_36)">
      <path id="Path_36-2" data-name="Path 36" d="M3052.558,482.5l-31.048,36.776,31.7,45.257h29.964l-29.862-45.257,29.862-36.776Z" transform="translate(-2998.54 -474.62)" fill="#00cc50"/>
    </g>
    <g transform="matrix(1, 0, 0, 1, 250, 218)" filter="url(#wuo)">
      <text id="wuo-2" data-name="wuo" transform="translate(76.6 67)" fill="#fff" font-size="65" font-family="Raleway-Medium, Raleway" font-weight="500"><tspan x="0" y="0">w</tspan><tspan y="0" fill="#00d844">u</tspan><tspan y="0">o</tspan></text>
    </g>
    <g transform="matrix(1, 0, 0, 1, 250, 218)" filter="url(#Rectangle_230)">
      <rect id="Rectangle_230-2" data-name="Rectangle 230" width="3.928" height="9.821" transform="translate(189.36 72.64) rotate(39)" fill="#fff"/>
    </g>
    <g transform="matrix(1, 0, 0, 1, 250, 218)" filter="url(#Path_37)">
      <path id="Path_37-2" data-name="Path 37" d="M3052.558,482.5l-31.048,36.776,31.7,45.257H3072.6l-31.648-45.257L3072.6,482.5Z" transform="translate(-2998.54 -474.62)" fill="#00cc50"/>
    </g>
    <circle id="Ellipse_9" data-name="Ellipse 9" cx="9.493" cy="9.493" r="9.493" transform="translate(250 255.426)" fill="#fff"/>
    <text id="Kwuo_simply_means_pay." data-name="Kwuo simply means pay." transform="translate(267.677 333.659)" fill="#fff" font-size="16" font-family="Raleway-Regular, Raleway"><tspan x="0" y="0">Kwuo simply means pay.</tspan></text>
  </g>
</svg>
