<?xml version="1.0"?>
<svg xmlns="http://www.w3.org/2000/svg" id="Layer_1" data-name="Layer 1" viewBox="0 0 512 512" width="512" height="512"><title>Money Transaction</title><path d="M464.75,208.75H371A37.292,37.292,0,0,0,333.75,246V464.75A37.292,37.292,0,0,0,371,502h93.75A37.292,37.292,0,0,0,502,464.75V246A37.292,37.292,0,0,0,464.75,208.75ZM490,257.469V427.5H345.75V257.469ZM371,220.75h93.75a25.274,25.274,0,0,1,25.236,24.719H345.764A25.274,25.274,0,0,1,371,220.75ZM464.75,490H371a25.278,25.278,0,0,1-25.25-25.25V439.5H490v25.25A25.278,25.278,0,0,1,464.75,490Z"/><path d="M432.328,458.75H403.422a6,6,0,0,0,0,12h28.906a6,6,0,0,0,0-12Z"/><path d="M178.25,266V47.25A37.292,37.292,0,0,0,141,10H47.25A37.292,37.292,0,0,0,10,47.25V266a37.292,37.292,0,0,0,37.25,37.25H141A37.292,37.292,0,0,0,178.25,266Zm-12-207.281V228.75H22V58.719ZM47.25,22H141a25.274,25.274,0,0,1,25.236,24.719H22.014A25.274,25.274,0,0,1,47.25,22ZM22,266V240.75H166.25V266A25.278,25.278,0,0,1,141,291.25H47.25A25.278,25.278,0,0,1,22,266Z"/><path d="M108.578,260H79.672a6,6,0,0,0,0,12h28.906a6,6,0,0,0,0-12Z"/><path d="M166.784,430.3a122.7,122.7,0,0,1-55.63-98.6,6,6,0,1,0-11.992.409A134.344,134.344,0,0,0,247.855,461.351l5.8,27.406a6,6,0,0,0,10.9,2.029L290.2,451.371a6,6,0,0,0-1.757-8.3l-39.416-25.644a6,6,0,0,0-9.142,6.272l5.471,25.851A122.293,122.293,0,0,1,166.784,430.3Zm110.085,19.555L262.4,472.1l-3.864-18.254c0-.011,0-.022,0-.033a6.087,6.087,0,0,0-.151-.7l-3.754-17.733Z"/><path d="M402.425,171.815a6,6,0,0,0,5.992,5.8c.069,0,.139,0,.208,0a6,6,0,0,0,5.792-6.2A134.494,134.494,0,0,0,265.724,42.157l-5.8-27.4a6,6,0,0,0-10.9-2.03L223.38,52.144a6,6,0,0,0,1.757,8.3l39.415,25.644a6,6,0,0,0,9.142-6.271l-5.471-25.851a122.492,122.492,0,0,1,134.2,117.848ZM236.711,53.659l14.473-22.245,3.862,18.249c0,.013,0,.025,0,.037a6.2,6.2,0,0,0,.152.7l3.753,17.729Z"/><path d="M94.125,152.079A18,18,0,0,1,94.3,188.07c-.059,0-.115-.008-.174-.008s-.115.007-.174.008a18.015,18.015,0,0,1-17.826-17.991,6,6,0,0,0-12,0,30.05,30.05,0,0,0,24,29.4v8.883a6,6,0,0,0,12,0v-8.883a30,30,0,0,0-6-59.4,18,18,0,1,1,18-18,6,6,0,0,0,12,0,30.05,30.05,0,0,0-24-29.4V84.892a6,6,0,0,0-12,0v7.791a30,30,0,0,0,6,59.4Z"/><path d="M383.193,315.67a6,6,0,0,0-.063,12l42.838.46a23.8,23.8,0,0,1-22.922,17.515h-.259l-19.848-.213h-.064a6,6,0,0,0-4.167,10.317l49.1,47.409a6,6,0,1,0,8.335-8.633L397.9,357.592l4.762.051a35.814,35.814,0,0,0,35.566-29.382l14.267.153h.066a6,6,0,0,0,.063-12l-14.267-.153a35.659,35.659,0,0,0-8.363-17.853l22.821.245h.065a6,6,0,0,0,.063-12l-49.513-.531-19.848-.213h-.065a6,6,0,0,0-.064,12l19.848.213a23.806,23.806,0,0,1,22.8,18.007l-42.839-.459Z"/></svg>
