<svg xmlns="http://www.w3.org/2000/svg" xmlns:xlink="http://www.w3.org/1999/xlink" width="646.285" height="583.721" viewBox="0 0 646.285 583.721">
  <defs>
    <filter id="Rectangle_1" x="343.407" y="64.099" width="219.058" height="383.56" filterUnits="userSpaceOnUse">
      <feOffset dy="3" input="SourceAlpha"/>
      <feGaussianBlur stdDeviation="3" result="blur"/>
      <feFlood flood-opacity="0.161"/>
      <feComposite operator="in" in2="blur"/>
      <feComposite in="SourceGraphic"/>
    </filter>
  </defs>
  <g id="Single_user" data-name="Single user" transform="translate(-71.064 -206.121)">
    <g id="Group_3" data-name="Group 3" transform="matrix(0.995, 0.105, -0.105, 0.995, 73.236, 44.841)" opacity="0.498">
      <path id="Path_29" data-name="Path 29" d="M247.5,0C384.19,0,495,110.81,495,247.5S384.19,495,247.5,495-117.6,364.895,56.911,226.763,110.81,0,247.5,0Z" transform="translate(141 148)" fill="#3bb75e" opacity="0.246"/>
      <path id="Path_30" data-name="Path 30" d="M247.5,0C384.19,0,495,110.81,495,247.5S384.19,495,247.5,495-117.6,364.895,56.911,226.763,110.81,0,247.5,0Z" transform="translate(172 184)" fill="#39a758" opacity="0.132"/>
      <path id="Path_28" data-name="Path 28" d="M247.5,0C384.19,0,440.872,282.732,440.872,419.422S384.19,495,247.5,495-251.772,269.562-77.258,131.43,110.81,0,247.5,0Z" transform="translate(192 161)" fill="#3bb75e" opacity="0.345"/>
    </g>
    <g id="phone" transform="translate(51.471 121.22)">
      <g transform="matrix(1, 0, 0, 1, 19.59, 84.9)" filter="url(#Rectangle_1)">
        <g id="Rectangle_1-2" data-name="Rectangle 1" transform="translate(352.41 70.1)" fill="#fff" stroke="#3bb75e" stroke-width="1">
          <rect width="201.058" height="365.56" rx="47" stroke="none"/>
          <rect x="0.5" y="0.5" width="200.058" height="364.56" rx="46.5" fill="none"/>
        </g>
      </g>
      <rect id="Rectangle_2" data-name="Rectangle 2" width="175.164" height="292.448" transform="translate(384.947 190.033)" fill="#f9f9f9"/>
      <rect id="Rectangle_3" data-name="Rectangle 3" width="73.112" height="4.57" transform="translate(435.973 172.516)" fill="#f9f9f9"/>
    </g>
    <g id="second_man" data-name="second man" transform="translate(229.752 344.861)">
      <g id="tr_shoe" data-name="tr &amp; shoe" transform="translate(75.919 195.886)">
        <path id="Path_21" data-name="Path 21" d="M1331.959,725.911l8.166,62.4-7.073,76.031h-8.731l-4.448-76.031-20.385-62.4Z" transform="translate(-1266.864 -725.911)" fill="#3f9d5a"/>
        <path id="Path_22" data-name="Path 22" d="M1416.657,725.911l-4.107,62.683-11.315,75.991h-10.064l2.106-75.991-9.244-62.683Z" transform="translate(-1384.033 -725.911)" fill="#227138"/>
        <path id="Path_23" data-name="Path 23" d="M1288.545,969.069l1.151,2.92,16.6,4.706h-26.141l1.206-7.626Z" transform="translate(-1223.747 -831.121)" fill="#09213d"/>
        <path id="Path_24" data-name="Path 24" d="M1422.321,969.579l3.654,8.425h-15.606l2.669-8.425Z" transform="translate(-1405.528 -831.386)" fill="#051223"/>
      </g>
      <g id="shirt" transform="translate(0 0)">
        <path id="Path_27" data-name="Path 27" d="M11.208,19.4,0,15.452S1.812,9.781,1.767,6.927A18.115,18.115,0,0,1,3.121.768,47.872,47.872,0,0,1,8.835.077c3.049-.173,6.48,0,6.48,0Z" transform="matrix(0.208, 0.978, -0.978, 0.208, 190.389, 0.702)" fill="#e6b29c"/>
        <path id="Path_18" data-name="Path 18" d="M1266.112,635.955V561.765l45.752-41.571,4.494-65.253h-20.37l-4.085,56.165-21.96,14.751h-79.419L1166.708,512.4l-19.246-57.461h-21.581l21.581,74.531,47.806,31.2.666,75.284Z" transform="translate(-1122.861 -439.345)" fill="#00c158"/>
        <path id="Path_19" data-name="Path 19" d="M1384.356,496.858l-13.962,62.609-29.3-62.609h43.265Z" transform="translate(-1255.172 -410.345)" fill="#fff"/>
        <path id="Path_20" data-name="Path 20" d="M1374.319,502.663c2.4.89.744,4,.744,4h-2.57l4.264,46.124-2.438,9.755-9.433-20.081,4.265-35.8H1366s-1.327-4.088,0-3.56S1371.922,501.773,1374.319,502.663Z" transform="translate(-1259.011 -413.232)" fill="#227138"/>
        <path id="Path_25" data-name="Path 25" d="M1410.651,597.128l19.83,17.731v-6.7Z" transform="translate(-1338.096 -462.9)" fill="#fff"/>
        <path id="Path_26" data-name="Path 26" d="M8.862,18.654c-4.9-1.017-7.493-5.475-8.63-9.6S2.515,0,2.515,0l16.21,14.091S13.764,19.671,8.862,18.654Z" transform="translate(26.452 14.172) rotate(139)" fill="#e6b29c"/>
      </g>
      <g id="head" transform="translate(90.036 22.331)">
        <path id="Path_17" data-name="Path 17" d="M1416.766,455.861s2.536,7.757,2.979,12.811-2.979,11.509-2.979,11.509.905,7.985-1.447,12.24-7.962,4.781-7.962,4.781l-4.826,10.806s-7.423,3.6-14.961,3.6-15.19-3.6-15.19-3.6V497.2l2.039-39.088Z" transform="translate(-1369.24 -444.069)" fill="#e6b29c"/>
        <path id="Path_16" data-name="Path 16" d="M1421.443,434.118l-22.751-2.79s-19.207,1.535-22.558,6.777-2.888,17.181-2.888,17.181V485.38h9.245l9.461-22.634s-6.5-6.773-7.278-11.281,7.278-2.937,7.278-2.937h20.6l10.814-2.731Z" transform="translate(-1373.224 -431.328)" fill="#191625"/>
      </g>
    </g>
    <circle id="Ellipse_8" data-name="Ellipse 8" cx="47" cy="47" r="47" transform="translate(482 413)" fill="#fff"/>
    <path id="Path_31" data-name="Path 31" d="M487.3,438.237l9.679,11.188,37.253-27.358" transform="translate(18.13 24.564)" fill="none" stroke="#00a556" stroke-width="7"/>
    <path id="Path_32" data-name="Path 32" d="M2054.633,500.87l-15.208,18.272h24.589Z" transform="translate(-1747.07 -134.878)" fill="#00cc50"/>
    <path id="Path_33" data-name="Path 33" d="M2054.633,500.87l-15.208,18.272h24.589Z" transform="matrix(0.616, 0.788, -0.788, 0.616, -426.625, -1601.639)" fill="#00cc50"/>
    <path id="Path_34" data-name="Path 34" d="M2054.525,500.87l-15.1,10.239h24.414Z" transform="matrix(0.616, 0.788, -0.788, 0.616, -512.955, -1369.693)" fill="#00cc50"/>
    <path id="Path_35" data-name="Path 35" d="M2054.525,500.87l-15.1,10.239h24.414Z" transform="matrix(0.616, 0.788, -0.788, 0.616, -560.955, -1376.693)" fill="#f0f0f0"/>
  </g>
</svg>
