<?xml version="1.0"?>
<svg xmlns="http://www.w3.org/2000/svg" id="Layer_1" data-name="Layer 1" viewBox="0 0 512 512" width="512" height="512"><title>Security</title><path d="M156.342,225.3a34.579,34.579,0,0,0-23.192,9.015,34.574,34.574,0,0,0-23.191-9.015c-19.69,0-35.709,16.812-35.709,37.477s16.019,37.477,35.709,37.477a34.573,34.573,0,0,0,23.191-9.014,34.578,34.578,0,0,0,23.192,9.014c19.69,0,35.709-16.812,35.709-37.477S176.032,225.3,156.342,225.3ZM123.76,278.084a18.851,18.851,0,0,1-13.8,6.169c-10.868,0-19.709-9.634-19.709-21.477S99.091,241.3,109.959,241.3a18.852,18.852,0,0,1,13.8,6.17,39.031,39.031,0,0,0,0,30.615Zm32.582,6.169a18.851,18.851,0,0,1-13.8-6.169,39.031,39.031,0,0,0,0-30.615,18.852,18.852,0,0,1,13.8-6.17c10.867,0,19.709,9.635,19.709,21.477S167.209,284.253,156.342,284.253Z"/><path d="M483,312.226V88.439C483,67.486,465.953,50,445,50H49C28.047,50,11,67.486,11,88.439V326.682C11,347.635,28.047,365,49,365H302v65.913A31.251,31.251,0,0,0,333.367,462H469.16c17.556,0,31.84-14.188,31.84-31.087v-91.09A30.615,30.615,0,0,0,483,312.226ZM27,88.439C27,76.309,36.869,66,49,66H445c12.131,0,22,10.309,22,22.439V97H27ZM27,113H467v42H27ZM302,339.824V349H49a22.3,22.3,0,0,1-22-22.318V171H467v68.073a71.384,71.384,0,0,0-14.175-18.558,72.748,72.748,0,0,0-51.379-20.091C360.809,200.456,328,232.265,328,271.36V309.7C313,312.356,302,324.849,302,339.824Zm157-68.463V309H344V271.36c0-30.292,25.42-55.36,57.262-55.36h.117a58.638,58.638,0,0,1,40.467,15.946A53.937,53.937,0,0,1,459,271.361Zm26,159.552C485,438.99,477.894,446,469.16,446H333.367A15.233,15.233,0,0,1,318,430.913V339.824A15.016,15.016,0,0,1,333.367,325H469.16c8.734,0,15.84,6.746,15.84,14.823Z"/><path d="M401.262,365.458c-12.628,0-23.032,9.939-23.032,22.156,0,9.5,6.77,17.611,14.77,20.757v13.251a8,8,0,1,0,16,0V408.371a21.943,21.943,0,0,0,15.031-20.757C424.031,375.4,413.889,365.458,401.262,365.458Zm0,28.311c-3.805,0-6.9-2.761-6.9-6.155s3.1-6.156,6.9-6.156,6.9,2.762,6.9,6.156S405.066,393.769,401.262,393.769Z"/></svg>
