<?xml version="1.0" encoding="iso-8859-1"?>
<!-- Generator: Adobe Illustrator 22.1.0, SVG Export Plug-In . SVG Version: 6.00 Build 0)  -->
<svg xmlns="http://www.w3.org/2000/svg" xmlns:xlink="http://www.w3.org/1999/xlink" version="1.1" id="Layer_1_1_" x="0px" y="0px" viewBox="0 0 64 64" style="enable-background:new 0 0 64 64;" xml:space="preserve" width="512" height="512">
<g>
	<rect x="31" y="5" width="8" height="2"/>
	<rect x="41" y="5" width="2" height="2"/>
	<rect x="27" y="5" width="2" height="2"/>
	<rect x="32" y="57" width="6" height="2"/>
	<path d="M53,21V6c0-2.757-2.243-5-5-5H22c-2.757,0-5,2.243-5,5v11c-1.505,0-2.997,0.497-4.2,1.4L10.667,20H9v-2H1v22h8v-2h1.667   l2.133,1.6c1.204,0.903,2.695,1.4,4.2,1.4v17c0,2.757,2.243,5,5,5h26c2.757,0,5-2.243,5-5V45H33V31h8v-8h12v8h8v14h-6v2h8V21H53z    M22,3h26c1.654,0,3,1.346,3,3v3H19V6C19,4.346,20.346,3,22,3z M19,11h32v10h-2v-8H21v4h-2V11z M7,38H3V20h4V38z M14,38l-2.667-2H9   V22h2.333L14,20c0.859-0.645,1.925-1,3-1h9c0.551,0,1,0.448,1,1s-0.449,1-1,1h-6.781l-0.189,0.758   C18.552,23.667,16.845,25,14.877,25H14v2h0.877c0.743,0,1.455-0.142,2.123-0.382V39C15.925,39,14.859,38.645,14,38z M48,61H22   c-1.654,0-3-1.346-3-3v-3h32v3C51,59.654,49.654,61,48,61z M51,53H19V25.444c0.751-0.655,1.356-1.482,1.729-2.444H21v28h28v-4h2V53   z M47,47v2H23V23h3c1.654,0,3-1.346,3-3s-1.346-3-3-3h-3v-2h24v6H31v26H47z M39,29h-6v-6h6V29z M55,29v-6h6v6H55z"/>
	<rect x="35" y="25" width="2" height="2"/>
	<rect x="57" y="25" width="2" height="2"/>
	<polygon points="47,31 47,25 43,25 43,27 45,27 45,31  "/>
	<rect x="49" y="25" width="2" height="4"/>
	<polygon points="41,33 35,33 35,35 39,35 39,39 41,39  "/>
	<polygon points="35,37 35,43 41,43 41,41 37,41 37,37  "/>
	<polygon points="51,31 49,31 49,33 43,33 43,35 51,35  "/>
	<polygon points="59,39 59,33 53,33 53,35 57,35 57,39  "/>
	<polygon points="53,43 59,43 59,41 55,41 55,37 53,37  "/>
	<rect x="43" y="37" width="2" height="6"/>
	<rect x="47" y="41" width="4" height="2"/>
	<rect x="47" y="37" width="4" height="2"/>
</g>
</svg>
